name C:\Users\u0101727\Documents\MyRepositories\upper-imu-dc\Results\main_tracking\Case_43\kinematics.mot
datacolumns 10
datarows 56
range 0.50000000 1.05000000
endheader 
time	clav_prot	clav_elev	scapula_abduction	scapula_elevation	scapula_upward_rot	scapula_winging	plane_elv	shoulder_elv	axial_rot	
          0.50000000	        -23.88532450	         -6.28548661	        -15.11098267	         -4.80656555	         10.22075075	          6.75761882	        -32.35437852	         12.75508273	         47.96133386	
          0.51000000	        -23.46196803	         -6.24624196	        -15.10006574	         -4.85440024	         10.26313164	          6.76460684	        -31.40612664	         12.84317982	         47.20066245	
          0.52000000	        -23.46547225	         -6.29280512	        -15.07206502	         -4.90226208	         10.30568246	          6.77165821	        -30.45739713	         12.93137925	         46.43972903	
          0.53000000	        -23.46931047	         -6.33946486	        -15.04459348	         -4.95022635	         10.34829888	          6.77883926	        -29.50735316	         13.01953195	         45.67798876	
          0.54000000	        -23.47373337	         -6.38617780	        -15.01804534	         -4.99829766	         10.39106503	          6.78611958	        -28.55489681	         13.10784226	         44.91476295	
          0.55000000	        -23.47908179	         -6.43288455	        -14.99293604	         -5.04649185	         10.43413206	          6.79344853	        -27.59867907	         13.19659450	         44.14918148	
          0.56000000	        -23.48564807	         -6.47953572	        -14.96965842	         -5.09484709	         10.47771700	          6.80076235	        -26.63713251	         13.28613784	         43.38016647	
          0.57000000	        -23.49367479	         -6.52609001	        -14.94848737	         -5.14341911	         10.52209103	          6.80798629	        -25.66851077	         13.37689390	         42.60641348	
          0.58000000	        -23.50335324	         -6.57251256	        -14.92958305	         -5.19227705	         10.56756948	          6.81503641	        -24.69092197	         13.46936415	         41.82636905	
          0.59000000	        -23.51481210	         -6.61877392	        -14.91297769	         -5.24149888	         10.61450071	          6.82182165	        -23.70236115	         13.56413340	         41.03821331	
          0.60000000	        -23.52811833	         -6.66484739	        -14.89858462	         -5.29116595	         10.66325346	          6.82824585	        -22.70074527	         13.66187027	         40.23985667	
          0.61000000	        -23.54328622	         -6.71070487	        -14.88622090	         -5.34135731	         10.71420581	          6.83420898	        -21.68395222	         13.76332391	         39.42895801	
          0.62000000	        -23.56029002	         -6.75631213	        -14.87563473	         -5.39214445	         10.76773648	          6.83960772	        -20.64986485	         13.86931592	         38.60296895	
          0.63000000	        -23.57907743	         -6.80162444	        -14.86653282	         -5.44358714	         10.82421899	          6.84433529	        -19.59641956	         13.98072676	         37.75920555	
          0.64000000	        -23.59957581	         -6.84658361	        -14.85859337	         -5.49573063	         10.88401839	          6.84828123	        -18.52165751	         14.09847741	         36.89494298	
          0.65000000	        -23.62168667	         -6.89111734	        -14.85145830	         -5.54860398	         10.94748850	          6.85133151	        -17.42377431	         14.22350832	         36.00752200	
          0.66000000	        -23.64527425	         -6.93514060	        -14.84471547	         -5.60221936	         11.01496772	          6.85336985	        -16.30116439	         14.35675857	         35.09445300	
          0.67000000	        -23.67015698	         -6.97855836	        -14.83788719	         -5.65657176	         11.08677238	          6.85428013	        -15.15245753	         14.49914731	         34.15350717	
          0.68000000	        -23.69610752	         -7.02126876	        -14.83043415	         -5.71163930	         11.16318854	          6.85394966	        -13.97654739	         14.65155838	         33.18279170	
          0.69000000	        -23.72286115	         -7.06316639	        -14.82177369	         -5.76738414	         11.24446390	          6.85227259	        -12.77261270	         14.81482754	         32.18081097	
          0.70000000	        -23.75012770	         -7.10414561	        -14.81130330	         -5.82375410	         11.33080124	          6.84915298	        -11.54013147	         14.98973213	         31.14651628	
          0.71000000	        -23.77760249	         -7.14410373	        -14.79842142	         -5.88068470	         11.42235392	          6.84450745	        -10.27888793	         15.17698243	         30.07934359	
          0.72000000	        -23.80497574	         -7.18294396	        -14.78254449	         -5.93810138	         11.51922326	          6.83826706	         -8.98897186	         15.37721484	         28.97923614	
          0.73000000	        -23.83194258	         -7.22057757	        -14.76312469	         -5.99592163	         11.62145734	          6.83037867	         -7.67077051	         15.59098697	         27.84664691	
          0.74000000	        -23.85821736	         -7.25692485	        -14.73967422	         -6.05405684	         11.72905134	          6.82080543	         -6.32495404	         15.81877499	         26.68251796	
          0.75000000	        -23.88354962	         -7.29191493	        -14.71179153	         -6.11241398	         11.84195019	          6.80952620	         -4.95245668	         16.06097409	         25.48823697	
          0.76000000	        -23.90773874	         -7.32548482	        -14.67918386	         -6.17089730	         11.96005395	          6.79653395	         -3.55445578	         16.31790192	         24.26557455	
          0.77000000	        -23.93065440	         -7.35757758	        -14.64169880	         -6.22941034	         12.08322507	          6.78183344	         -2.13235164	         16.58980404	         23.01660813	
          0.78000000	        -23.95225293	         -7.38814028	        -14.59934662	         -6.28785832	         12.21129956	          6.76543775	         -0.68774884	         16.87686159	         21.74363850	
          0.79000000	        -23.97258546	         -7.41712217	        -14.55230661	         -6.34615113	         12.34410130	          6.74736411	          0.77756027	         17.17919931	         20.44910458	
          0.80000000	        -23.99180518	         -7.44447226	        -14.50093083	         -6.40420618	         12.48145832	          6.72762908	          2.26161072	         17.49689264	         19.13550165	
          0.81000000	        -24.01014169	         -7.47013806	        -14.44568882	         -6.46195110	         12.62322303	          6.70624296	          3.76228142	         17.82997578	         17.80530606	
          0.82000000	        -24.02787951	         -7.49406368	        -14.38712214	         -6.51932487	         12.76928772	          6.68320518	          5.27731354	         18.17844601	         16.46090803	
          0.83000000	        -24.04531707	         -7.51618809	        -14.32576617	         -6.57627742	         12.91959869	          6.65849990	          6.80433352	         18.54226848	         15.10455380	
          0.84000000	        -24.06273288	         -7.53644282	        -14.26208869	         -6.63276720	         13.07416247	          6.63209339	          8.34087988	         18.92137741	         13.73829775	
          0.85000000	        -24.08036538	         -7.55474901	        -14.19645589	         -6.68875733	         13.23304543	          6.60393270	          9.88443285	         19.31567436	         12.36396652	
          0.86000000	        -24.09840519	         -7.57101426	        -14.12912212	         -6.74421118	         13.39636883	          6.57394543	         11.43244495	         19.72502392	         10.98313717	
          0.87000000	        -24.11700560	         -7.58512957	        -14.06025286	         -6.79908847	         13.56430074	          6.54204039	         12.98237017	         20.14924613	          9.59713080	
          0.88000000	        -24.13630456	         -7.59696689	        -13.98996677	         -6.85334266	         13.73704860	          6.50810836	         14.53169008	         20.58810795	          8.20702252	
          0.89000000	        -24.15644888	         -7.60637777	        -13.91837954	         -6.90692019	         13.91485490	          6.47202263	         16.07793584	         21.04131587	          6.81366726	
          0.90000000	        -24.17761561	         -7.61319363	        -13.84564036	         -6.95976178	         14.09799676	          6.43363925	         17.61870515	         21.50851087	          5.41773998	
          0.91000000	        -24.20002836	         -7.61722761	        -13.77195721	         -7.01180549	         14.28678888	          6.39279705	         19.15167441	         21.98926620	          4.01978830	
          0.92000000	        -24.22396850	         -7.61827796	        -13.69761167	         -7.06299123	         14.48158906	          6.34931787	         20.67460648	         22.48308802	          2.62029543	
          0.93000000	        -24.24977774	         -7.61613275	        -13.62295730	         -7.11326626	         14.68280583	          6.30300661	         22.18535481	         22.98941872	          1.21975204	
          0.94000000	        -24.27783911	         -7.61057608	        -13.54837895	         -7.16259105	         14.89090865	          6.25365139	         23.68186458	         23.50764260	         -0.18126470	
          0.95000000	        -24.30852097	         -7.60139615	        -13.47418773	         -7.21094449	         15.10643943	          6.20102417	         25.16217140	         24.03709330	         -1.58200725	
          0.96000000	        -24.34208339	         -7.58839492	        -13.40045320	         -7.25832692	         15.33002027	          6.14488312	         26.62439884	         24.57706222	         -2.98147350	
          0.97000000	        -24.37856563	         -7.57139809	        -13.32680964	         -7.30475943	         15.56235057	          6.08497815	         28.06675648	         25.12680762	         -4.37832860	
          0.98000000	        -24.41768904	         -7.55026330	        -13.25229891	         -7.35027873	         15.80418760	          6.02106039	         29.48754009	         25.68556401	         -5.77084070	
          0.99000000	        -24.45881537	         -7.52488493	        -13.17532084	         -7.39492805	         16.05630796	          5.95289533	         30.88513477	         26.25255086	         -7.15683879	
          1.00000000	        -24.50098573	         -7.49519406	        -13.09373246	         -7.43874598	         16.31945333	          5.88027788	         32.25802105	         26.82698040	         -8.53369937	
          1.01000000	        -24.54303199	         -7.46115470	        -13.00507560	         -7.48175579	         16.59427106	          5.80304629	         33.60478267	         27.40806525	         -9.89836587	
          1.02000000	        -24.58372265	         -7.42275845	        -12.90685984	         -7.52395831	         16.88126252	          5.72109245	         34.92411326	         27.99502489	        -11.24739962	
          1.03000000	        -24.62189631	         -7.38002063	        -12.79681287	         -7.56532994	         17.18075023	          5.63436708	         36.21481982	         28.58709010	        -12.57705665	
          1.04000000	        -24.65654897	         -7.33297909	        -12.67303789	         -7.60582570	         17.49286781	          5.54287991	         37.47582247	         29.18350637	        -13.88338107	
          1.05000000	        -24.68687107	         -7.28169496	        -12.53407330	         -7.64538532	         17.81756876	          5.44669614	         38.70615101	         29.78353738	        -15.16230622	
